<svg width="1344" height="396" viewBox="0 0 1344 396" fill="none" xmlns="http://www.w3.org/2000/svg">
<mask id="mask0" mask-type="alpha" maskUnits="userSpaceOnUse" x="0" y="0" width="1344" height="396">
<path d="M86.6772 232.196C113.688 143.708 119.097 40.5288 118.425 0L1344 45.5949V396H14.1102L0 232.196H86.6772Z" fill="#C4C4C4"/>
</mask>
<g mask="url(#mask0)">
<path d="M39.26 85.2H10.98V65.88H89.38V85.2H61.1V165H39.26V85.2ZM118.811 59.16V106.2H119.091C119.557 104.893 120.351 103.587 121.471 102.28C122.591 100.973 123.944 99.8067 125.531 98.78C127.117 97.7533 128.984 96.9133 131.131 96.26C133.277 95.6067 135.611 95.28 138.131 95.28C143.451 95.28 147.744 96.12 151.011 97.8C154.277 99.3867 156.797 101.627 158.571 104.52C160.437 107.413 161.697 110.82 162.351 114.74C163.004 118.66 163.331 122.907 163.331 127.48V165H142.331V131.68C142.331 129.72 142.237 127.713 142.051 125.66C141.957 123.513 141.537 121.553 140.791 119.78C140.137 118.007 139.064 116.56 137.571 115.44C136.171 114.32 134.117 113.76 131.411 113.76C128.704 113.76 126.511 114.273 124.831 115.3C123.151 116.233 121.844 117.54 120.911 119.22C120.071 120.807 119.511 122.627 119.231 124.68C118.951 126.733 118.811 128.88 118.811 131.12V165H97.8106V59.16H118.811ZM242.601 153.24C239.241 157.533 234.995 160.847 229.861 163.18C224.728 165.513 219.408 166.68 213.901 166.68C208.675 166.68 203.728 165.84 199.061 164.16C194.488 162.48 190.475 160.1 187.021 157.02C183.661 153.847 181.001 150.067 179.041 145.68C177.081 141.293 176.101 136.393 176.101 130.98C176.101 125.567 177.081 120.667 179.041 116.28C181.001 111.893 183.661 108.16 187.021 105.08C190.475 101.907 194.488 99.48 199.061 97.8C203.728 96.12 208.675 95.28 213.901 95.28C218.755 95.28 223.141 96.12 227.061 97.8C231.075 99.48 234.435 101.907 237.141 105.08C239.941 108.16 242.088 111.893 243.581 116.28C245.075 120.667 245.821 125.567 245.821 130.98V137.56H197.101C197.941 141.573 199.761 144.793 202.561 147.22C205.361 149.553 208.815 150.72 212.921 150.72C216.375 150.72 219.268 149.973 221.601 148.48C224.028 146.893 226.128 144.887 227.901 142.46L242.601 153.24ZM224.821 123.28C224.915 119.733 223.748 116.7 221.321 114.18C218.895 111.66 215.768 110.4 211.941 110.4C209.608 110.4 207.555 110.773 205.781 111.52C204.008 112.267 202.468 113.247 201.161 114.46C199.948 115.58 198.968 116.933 198.221 118.52C197.568 120.013 197.195 121.6 197.101 123.28H224.821ZM302.678 65.88H339.498C344.631 65.88 349.484 66.3467 354.058 67.28C358.631 68.2133 362.598 69.8467 365.958 72.18C369.411 74.42 372.118 77.5 374.078 81.42C376.131 85.2467 377.158 90.1 377.158 95.98C377.158 101.767 376.224 106.62 374.358 110.54C372.491 114.46 369.924 117.587 366.658 119.92C363.391 122.253 359.518 123.933 355.038 124.96C350.558 125.893 345.704 126.36 340.478 126.36H324.518V165H302.678V65.88ZM324.518 107.88H339.078C341.038 107.88 342.904 107.693 344.678 107.32C346.544 106.947 348.178 106.34 349.578 105.5C351.071 104.567 352.238 103.353 353.078 101.86C354.011 100.273 354.478 98.3133 354.478 95.98C354.478 93.46 353.871 91.4533 352.658 89.96C351.538 88.3733 350.044 87.16 348.178 86.32C346.404 85.48 344.398 84.9667 342.158 84.78C339.918 84.5 337.771 84.36 335.718 84.36H324.518V107.88ZM430.901 156.46H430.621C428.288 160.1 425.161 162.713 421.241 164.3C417.415 165.887 413.355 166.68 409.061 166.68C405.888 166.68 402.808 166.213 399.821 165.28C396.928 164.44 394.361 163.133 392.121 161.36C389.881 159.587 388.108 157.393 386.801 154.78C385.495 152.167 384.841 149.133 384.841 145.68C384.841 141.76 385.541 138.447 386.941 135.74C388.435 133.033 390.395 130.793 392.821 129.02C395.341 127.247 398.188 125.893 401.361 124.96C404.535 123.933 407.801 123.187 411.161 122.72C414.615 122.253 418.021 121.973 421.381 121.88C424.835 121.787 428.008 121.74 430.901 121.74C430.901 118.007 429.548 115.067 426.841 112.92C424.228 110.68 421.101 109.56 417.461 109.56C414.008 109.56 410.835 110.307 407.941 111.8C405.141 113.2 402.621 115.16 400.381 117.68L389.181 106.2C393.101 102.56 397.675 99.8533 402.901 98.08C408.128 96.2133 413.541 95.28 419.141 95.28C425.301 95.28 430.341 96.0733 434.261 97.66C438.275 99.1533 441.448 101.393 443.781 104.38C446.208 107.367 447.888 111.053 448.821 115.44C449.755 119.733 450.221 124.727 450.221 130.42V165H430.901V156.46ZM425.721 135.18C424.135 135.18 422.128 135.273 419.701 135.46C417.368 135.553 415.081 135.927 412.841 136.58C410.695 137.233 408.828 138.213 407.241 139.52C405.748 140.827 405.001 142.647 405.001 144.98C405.001 147.5 406.075 149.367 408.221 150.58C410.368 151.793 412.608 152.4 414.941 152.4C416.995 152.4 418.955 152.12 420.821 151.56C422.781 151 424.508 150.207 426.001 149.18C427.495 148.153 428.661 146.847 429.501 145.26C430.435 143.673 430.901 141.807 430.901 139.66V135.18H425.721ZM463.397 96.96H484.397V107.88H484.677C486.917 103.68 489.577 100.553 492.657 98.5C495.737 96.3533 499.61 95.28 504.277 95.28C505.49 95.28 506.703 95.3267 507.917 95.42C509.13 95.5133 510.25 95.7 511.277 95.98V115.16C509.783 114.693 508.29 114.367 506.797 114.18C505.397 113.9 503.903 113.76 502.317 113.76C498.303 113.76 495.13 114.32 492.797 115.44C490.463 116.56 488.643 118.147 487.337 120.2C486.123 122.16 485.33 124.54 484.957 127.34C484.583 130.14 484.397 133.22 484.397 136.58V165H463.397V96.96ZM566.748 113.76H548.268V136.44C548.268 138.307 548.362 140.033 548.548 141.62C548.735 143.113 549.155 144.42 549.808 145.54C550.462 146.66 551.442 147.547 552.748 148.2C554.148 148.76 555.968 149.04 558.208 149.04C559.328 149.04 560.775 148.947 562.548 148.76C564.415 148.48 565.815 147.92 566.748 147.08V164.58C564.415 165.42 561.988 165.98 559.468 166.26C556.948 166.54 554.475 166.68 552.048 166.68C548.502 166.68 545.235 166.307 542.248 165.56C539.262 164.813 536.648 163.647 534.408 162.06C532.168 160.38 530.395 158.233 529.088 155.62C527.875 153.007 527.268 149.833 527.268 146.1V113.76H513.828V96.96H527.268V76.8H548.268V96.96H566.748V113.76ZM616.62 176.06C615.22 179.7 613.867 182.92 612.56 185.72C611.253 188.52 609.573 190.853 607.52 192.72C605.56 194.68 603.04 196.127 599.96 197.06C596.88 198.087 592.82 198.6 587.78 198.6C582.367 198.6 577.14 197.76 572.1 196.08L574.9 178.86C578.073 180.26 581.34 180.96 584.7 180.96C587.033 180.96 588.947 180.68 590.44 180.12C591.933 179.653 593.147 178.907 594.08 177.88C595.107 176.947 595.947 175.78 596.6 174.38C597.253 172.98 597.953 171.347 598.7 169.48L600.24 165.56L570.42 96.96H593.1L610.6 141.9H610.88L625.86 96.96H647.42L616.62 176.06ZM699.299 65.88H736.119C741.252 65.88 746.105 66.3467 750.679 67.28C755.252 68.2133 759.219 69.8467 762.579 72.18C766.032 74.42 768.739 77.5 770.699 81.42C772.752 85.2467 773.779 90.1 773.779 95.98C773.779 101.767 772.845 106.62 770.979 110.54C769.112 114.46 766.545 117.587 763.279 119.92C760.012 122.253 756.139 123.933 751.659 124.96C747.179 125.893 742.325 126.36 737.099 126.36H721.139V165H699.299V65.88ZM721.139 107.88H735.699C737.659 107.88 739.525 107.693 741.299 107.32C743.165 106.947 744.799 106.34 746.199 105.5C747.692 104.567 748.859 103.353 749.699 101.86C750.632 100.273 751.099 98.3133 751.099 95.98C751.099 93.46 750.492 91.4533 749.279 89.96C748.159 88.3733 746.665 87.16 744.799 86.32C743.025 85.48 741.019 84.9667 738.779 84.78C736.539 84.5 734.392 84.36 732.339 84.36H721.139V107.88ZM785.102 59.16H806.102V165H785.102V59.16ZM863.89 156.46H863.61C861.276 160.1 858.15 162.713 854.23 164.3C850.403 165.887 846.343 166.68 842.05 166.68C838.876 166.68 835.796 166.213 832.81 165.28C829.916 164.44 827.35 163.133 825.11 161.36C822.87 159.587 821.096 157.393 819.79 154.78C818.483 152.167 817.83 149.133 817.83 145.68C817.83 141.76 818.53 138.447 819.93 135.74C821.423 133.033 823.383 130.793 825.81 129.02C828.33 127.247 831.176 125.893 834.35 124.96C837.523 123.933 840.79 123.187 844.15 122.72C847.603 122.253 851.01 121.973 854.37 121.88C857.823 121.787 860.996 121.74 863.89 121.74C863.89 118.007 862.536 115.067 859.83 112.92C857.216 110.68 854.09 109.56 850.45 109.56C846.996 109.56 843.823 110.307 840.93 111.8C838.13 113.2 835.61 115.16 833.37 117.68L822.17 106.2C826.09 102.56 830.663 99.8533 835.89 98.08C841.116 96.2133 846.53 95.28 852.13 95.28C858.29 95.28 863.33 96.0733 867.25 97.66C871.263 99.1533 874.436 101.393 876.77 104.38C879.196 107.367 880.876 111.053 881.81 115.44C882.743 119.733 883.21 124.727 883.21 130.42V165H863.89V156.46ZM858.71 135.18C857.123 135.18 855.116 135.273 852.69 135.46C850.356 135.553 848.07 135.927 845.83 136.58C843.683 137.233 841.816 138.213 840.23 139.52C838.736 140.827 837.99 142.647 837.99 144.98C837.99 147.5 839.063 149.367 841.21 150.58C843.356 151.793 845.596 152.4 847.93 152.4C849.983 152.4 851.943 152.12 853.81 151.56C855.77 151 857.496 150.207 858.99 149.18C860.483 148.153 861.65 146.847 862.49 145.26C863.423 143.673 863.89 141.807 863.89 139.66V135.18H858.71ZM942.725 113.76H924.245V136.44C924.245 138.307 924.338 140.033 924.525 141.62C924.712 143.113 925.132 144.42 925.785 145.54C926.438 146.66 927.418 147.547 928.725 148.2C930.125 148.76 931.945 149.04 934.185 149.04C935.305 149.04 936.752 148.947 938.525 148.76C940.392 148.48 941.792 147.92 942.725 147.08V164.58C940.392 165.42 937.965 165.98 935.445 166.26C932.925 166.54 930.452 166.68 928.025 166.68C924.478 166.68 921.212 166.307 918.225 165.56C915.238 164.813 912.625 163.647 910.385 162.06C908.145 160.38 906.372 158.233 905.065 155.62C903.852 153.007 903.245 149.833 903.245 146.1V113.76H889.805V96.96H903.245V76.8H924.245V96.96H942.725V113.76ZM960.677 113.76H946.817V96.96H960.677V84.92C960.677 81.1867 961.003 77.6867 961.657 74.42C962.31 71.06 963.57 68.12 965.437 65.6C967.303 63.08 969.963 61.12 973.417 59.72C976.963 58.2267 981.583 57.48 987.277 57.48C989.423 57.48 991.523 57.5733 993.577 57.76C995.63 57.9467 997.637 58.2733 999.597 58.74L998.617 76.52C997.403 76.0533 996.283 75.7267 995.257 75.54C994.23 75.26 993.063 75.12 991.757 75.12C988.397 75.12 985.877 75.8667 984.197 77.36C982.517 78.76 981.677 81.7 981.677 86.18V96.96H997.217V113.76H981.677V165H960.677V113.76ZM1002.69 130.98C1002.69 125.567 1003.67 120.667 1005.63 116.28C1007.59 111.893 1010.25 108.16 1013.61 105.08C1017.07 101.907 1021.08 99.48 1025.65 97.8C1030.32 96.12 1035.27 95.28 1040.49 95.28C1045.72 95.28 1050.62 96.12 1055.19 97.8C1059.86 99.48 1063.87 101.907 1067.23 105.08C1070.69 108.16 1073.39 111.893 1075.35 116.28C1077.31 120.667 1078.29 125.567 1078.29 130.98C1078.29 136.393 1077.31 141.293 1075.35 145.68C1073.39 150.067 1070.69 153.847 1067.23 157.02C1063.87 160.1 1059.86 162.48 1055.19 164.16C1050.62 165.84 1045.72 166.68 1040.49 166.68C1035.27 166.68 1030.32 165.84 1025.65 164.16C1021.08 162.48 1017.07 160.1 1013.61 157.02C1010.25 153.847 1007.59 150.067 1005.63 145.68C1003.67 141.293 1002.69 136.393 1002.69 130.98ZM1023.69 130.98C1023.69 136.113 1025.14 140.267 1028.03 143.44C1031.02 146.613 1035.17 148.2 1040.49 148.2C1045.81 148.2 1049.92 146.613 1052.81 143.44C1055.8 140.267 1057.29 136.113 1057.29 130.98C1057.29 125.847 1055.8 121.693 1052.81 118.52C1049.92 115.347 1045.81 113.76 1040.49 113.76C1035.17 113.76 1031.02 115.347 1028.03 118.52C1025.14 121.693 1023.69 125.847 1023.69 130.98ZM1090.66 96.96H1111.66V107.88H1111.94C1114.18 103.68 1116.84 100.553 1119.92 98.5C1123 96.3533 1126.88 95.28 1131.54 95.28C1132.76 95.28 1133.97 95.3267 1135.18 95.42C1136.4 95.5133 1137.52 95.7 1138.54 95.98V115.16C1137.05 114.693 1135.56 114.367 1134.06 114.18C1132.66 113.9 1131.17 113.76 1129.58 113.76C1125.57 113.76 1122.4 114.32 1120.06 115.44C1117.73 116.56 1115.91 118.147 1114.6 120.2C1113.39 122.16 1112.6 124.54 1112.22 127.34C1111.85 130.14 1111.66 133.22 1111.66 136.58V165H1090.66V96.96ZM1150.13 96.96H1170.29V106.2H1170.57C1171.23 104.893 1172.16 103.587 1173.37 102.28C1174.59 100.973 1176.03 99.8067 1177.71 98.78C1179.39 97.7533 1181.31 96.9133 1183.45 96.26C1185.6 95.6067 1187.93 95.28 1190.45 95.28C1195.21 95.28 1199.41 96.26 1203.05 98.22C1206.79 100.18 1209.59 103.26 1211.45 107.46C1213.88 103.073 1216.82 99.9467 1220.27 98.08C1223.73 96.2133 1227.97 95.28 1233.01 95.28C1237.59 95.28 1241.41 96.0733 1244.49 97.66C1247.67 99.1533 1250.14 101.253 1251.91 103.96C1253.78 106.573 1255.09 109.7 1255.83 113.34C1256.67 116.887 1257.09 120.713 1257.09 124.82V165H1236.09V125.38C1236.09 122.207 1235.39 119.5 1233.99 117.26C1232.69 114.927 1230.31 113.76 1226.85 113.76C1224.43 113.76 1222.37 114.18 1220.69 115.02C1219.11 115.767 1217.8 116.84 1216.77 118.24C1215.84 119.64 1215.14 121.273 1214.67 123.14C1214.3 125.007 1214.11 126.967 1214.11 129.02V165H1193.11V129.02C1193.11 127.807 1193.07 126.313 1192.97 124.54C1192.88 122.767 1192.55 121.087 1191.99 119.5C1191.43 117.913 1190.5 116.56 1189.19 115.44C1187.98 114.32 1186.16 113.76 1183.73 113.76C1181.03 113.76 1178.83 114.273 1177.15 115.3C1175.47 116.233 1174.17 117.54 1173.23 119.22C1172.39 120.807 1171.83 122.627 1171.55 124.68C1171.27 126.733 1171.13 128.88 1171.13 131.12V165H1150.13V96.96Z" fill="url(#paint0_linear)" fill-opacity="0.1"/>
</g>
<defs>
<linearGradient id="paint0_linear" x1="69.4589" y1="59.7999" x2="949.958" y2="110.922" gradientUnits="userSpaceOnUse">
<stop stop-color="#FC38F4"/>
<stop offset="1" stop-color="#75C5FF"/>
</linearGradient>
</defs>
</svg>
